<svg width="24" height="24" viewBox="0 0 24 24" fill="none" xmlns="http://www.w3.org/2000/svg">
<path d="M15.2205 15.8C15.0536 15.6074 14.9701 15.3887 14.9701 15.144C14.9701 14.8999 15.0536 14.6963 15.2205 14.5333L16.9047 12.8889H10.3727C10.1147 12.8889 9.89868 12.8036 9.72449 12.6329C9.5497 12.4628 9.4623 12.2519 9.4623 12C9.4623 11.7481 9.5497 11.5369 9.72449 11.3662C9.89868 11.1961 10.1147 11.1111 10.3727 11.1111H16.9047L15.2205 9.46667C15.0384 9.28889 14.9474 9.07793 14.9474 8.83378C14.9474 8.58904 15.0384 8.37778 15.2205 8.2C15.3874 8.02222 15.5962 7.93333 15.8468 7.93333C16.0969 7.93333 16.3054 8.01481 16.4723 8.17778L19.7496 11.3778C19.8407 11.4667 19.9053 11.563 19.9436 11.6667C19.9812 11.7704 20 11.8815 20 12C20 12.1185 19.9812 12.2296 19.9436 12.3333C19.9053 12.437 19.8407 12.5333 19.7496 12.6222L16.4723 15.8222C16.275 16.0148 16.0589 16.0999 15.8241 16.0773C15.5886 16.0554 15.3874 15.963 15.2205 15.8ZM5.82077 20C5.32006 20 4.89127 19.8261 4.5344 19.4782C4.17813 19.1298 4 18.7111 4 18.2222V5.77778C4 5.28889 4.17813 4.87022 4.5344 4.52178C4.89127 4.17393 5.32006 4 5.82077 4H11.2831C11.541 4 11.7574 4.08504 11.9322 4.25511C12.1064 4.42578 12.1935 4.63704 12.1935 4.88889C12.1935 5.14074 12.1064 5.3517 11.9322 5.52178C11.7574 5.69244 11.541 5.77778 11.2831 5.77778H5.82077V18.2222H11.2831C11.541 18.2222 11.7574 18.3076 11.9322 18.4782C12.1064 18.6483 12.1935 18.8593 12.1935 19.1111C12.1935 19.363 12.1064 19.5739 11.9322 19.744C11.7574 19.9147 11.541 20 11.2831 20H5.82077Z" fill="#F4EBE1"/>
</svg>
