<svg width="24" height="24" viewBox="0 0 24 24" fill="none" xmlns="http://www.w3.org/2000/svg">
<path d="M14 9.62843C14 9.48304 14.0543 9.33344 14.163 9.17965C14.271 9.02649 14.3917 8.92569 14.525 8.87722C15.0083 8.71567 15.4917 8.59451 15.975 8.51373C16.4583 8.43296 16.9667 8.39257 17.5 8.39257C17.8333 8.39257 18.1627 8.4126 18.488 8.45267C18.8127 8.49338 19.1333 8.54604 19.45 8.61066C19.6 8.64297 19.729 8.72375 19.837 8.85299C19.9457 8.98223 20 9.12763 20 9.28918C20 9.56381 19.9083 9.76575 19.725 9.89499C19.5417 10.0242 19.3083 10.0565 19.025 9.99192C18.7917 9.94346 18.546 9.90695 18.288 9.88239C18.0293 9.85848 17.7667 9.84653 17.5 9.84653C17.0667 9.84653 16.6417 9.88691 16.225 9.96769C15.8083 10.0485 15.4083 10.1535 15.025 10.2827C14.725 10.3958 14.4793 10.3877 14.288 10.2585C14.096 10.1292 14 9.91922 14 9.62843ZM14 14.9596C14 14.8142 14.0543 14.6646 14.163 14.5108C14.271 14.3577 14.3917 14.2569 14.525 14.2084C15.0083 14.0469 15.4917 13.9257 15.975 13.8449C16.4583 13.7641 16.9667 13.7237 17.5 13.7237C17.8333 13.7237 18.1627 13.7438 18.488 13.7838C18.8127 13.8246 19.1333 13.8772 19.45 13.9418C19.6 13.9742 19.729 14.0549 19.837 14.1842C19.9457 14.3134 20 14.4588 20 14.6204C20 14.895 19.9083 15.0969 19.725 15.2262C19.5417 15.3554 19.3083 15.3877 19.025 15.3231C18.7917 15.2746 18.546 15.2381 18.288 15.2136C18.0293 15.1897 17.7667 15.1777 17.5 15.1777C17.0667 15.1777 16.6417 15.2142 16.225 15.2872C15.8083 15.3596 15.4083 15.4604 15.025 15.5897C14.725 15.7027 14.4793 15.6985 14.288 15.5771C14.096 15.4562 14 15.2504 14 14.9596ZM14 12.294C14 12.1486 14.0543 11.999 14.163 11.8452C14.271 11.6921 14.3917 11.5913 14.525 11.5428C15.0083 11.3813 15.4917 11.2601 15.975 11.1793C16.4583 11.0985 16.9667 11.0582 17.5 11.0582C17.8333 11.0582 18.1627 11.0782 18.488 11.1183C18.8127 11.159 19.1333 11.2116 19.45 11.2763C19.6 11.3086 19.729 11.3893 19.837 11.5186C19.9457 11.6478 20 11.7932 20 11.9548C20 12.2294 19.9083 12.4313 19.725 12.5606C19.5417 12.6898 19.3083 12.7221 19.025 12.6575C18.7917 12.609 18.546 12.5725 18.288 12.548C18.0293 12.5241 17.7667 12.5121 17.5 12.5121C17.0667 12.5121 16.6417 12.5525 16.225 12.6333C15.8083 12.7141 15.4083 12.8191 15.025 12.9483C14.725 13.0614 14.4793 13.0533 14.288 12.9241C14.096 12.7948 14 12.5848 14 12.294ZM13 17.6494C13.7333 17.3102 14.471 17.0556 15.213 16.8856C15.9543 16.7163 16.7167 16.6317 17.5 16.6317C18.1 16.6317 18.6877 16.6801 19.263 16.7771C19.8377 16.874 20.4167 17.0194 21 17.2132V7.61712C20.45 7.39095 19.8793 7.22132 19.288 7.10824C18.696 6.99515 18.1 6.93861 17.5 6.93861C16.7167 6.93861 15.9417 7.03554 15.175 7.2294C14.4083 7.42326 13.6833 7.71405 13 8.10178V17.6494ZM12 20C11.7667 20 11.546 19.9719 11.338 19.9157C11.1293 19.8588 10.9333 19.7819 10.75 19.685C10.1 19.3134 9.41667 19.0349 8.7 18.8494C7.98333 18.6633 7.25 18.5703 6.5 18.5703C5.8 18.5703 5.11267 18.6591 4.438 18.8368C3.76267 19.0145 3.11667 19.2649 2.5 19.588C2.15 19.7658 1.81267 19.7577 1.488 19.5638C1.16267 19.37 1 19.0872 1 18.7157V7.03554C1 6.85784 1.046 6.68821 1.138 6.52666C1.22933 6.3651 1.36667 6.24394 1.55 6.16317C2.31667 5.77544 3.11667 5.48465 3.95 5.29079C4.78333 5.09693 5.63333 5 6.5 5C7.46667 5 8.41267 5.12116 9.338 5.36349C10.2627 5.60582 11.15 5.96931 12 6.45396C12.85 5.96931 13.7377 5.60582 14.663 5.36349C15.5877 5.12116 16.5333 5 17.5 5C18.3667 5 19.2167 5.09693 20.05 5.29079C20.8833 5.48465 21.6833 5.77544 22.45 6.16317C22.6333 6.24394 22.771 6.3651 22.863 6.52666C22.9543 6.68821 23 6.85784 23 7.03554V18.7157C23 19.0872 22.8377 19.37 22.513 19.5638C22.1877 19.7577 21.85 19.7658 21.5 19.588C20.8833 19.2649 20.2373 19.0145 19.562 18.8368C18.8873 18.6591 18.2 18.5703 17.5 18.5703C16.75 18.5703 16.0167 18.6633 15.3 18.8494C14.5833 19.0349 13.9 19.3134 13.25 19.685C13.0667 19.7819 12.871 19.8588 12.663 19.9157C12.4543 19.9719 12.2333 20 12 20Z" fill="#F4EBE1"/>
</svg>
