<svg width="19" height="19" viewBox="0 0 19 19" fill="none" xmlns="http://www.w3.org/2000/svg">
<path d="M9.5 19C8.18333 19 6.946 18.75 5.788 18.25C4.62933 17.75 3.625 17.075 2.775 16.225C1.925 15.375 1.25 14.3707 0.75 13.212C0.25 12.054 0 10.8167 0 9.5C0 8.18333 0.25 6.94567 0.75 5.787C1.25 4.629 1.925 3.625 2.775 2.775C3.625 1.925 4.62933 1.25 5.788 0.75C6.946 0.25 8.18333 0 9.5 0C10.8167 0 12.0543 0.25 13.213 0.75C14.371 1.25 15.375 1.925 16.225 2.775C17.075 3.625 17.75 4.629 18.25 5.787C18.75 6.94567 19 8.18333 19 9.5C19 10.8167 18.75 12.054 18.25 13.212C17.75 14.3707 17.075 15.375 16.225 16.225C15.375 17.075 14.371 17.75 13.213 18.25C12.0543 18.75 10.8167 19 9.5 19ZM9.5 17.5C11.7333 17.5 13.625 16.725 15.175 15.175C16.725 13.625 17.5 11.7333 17.5 9.5C17.5 7.26667 16.725 5.375 15.175 3.825C13.625 2.275 11.7333 1.5 9.5 1.5C7.26667 1.5 5.375 2.275 3.825 3.825C2.275 5.375 1.5 7.26667 1.5 9.5C1.5 11.7333 2.275 13.625 3.825 15.175C5.375 16.725 7.26667 17.5 9.5 17.5Z" fill="#C3A788"/>
<circle cx="9.5" cy="9.5" r="5" fill="#C3A788"/>
</svg>
